<?xml version="1.0" encoding="utf-8"?>
<svg width="24" height="1152" viewBox="0 0 16 1156.215" xmlns="http://www.w3.org/2000/svg">
  <svg width="24" height="24" id="brand-3d-rotation" y="0" transform="matrix(0.6666666666666666, 0, 0, 0.6666666666666666, 0, 0)">
    <path d="M 5.389 12.53 C 3.437 11.611 2.114 9.731 1.907 7.583 L 1.032 7.583 C 1.329 11.177 4.333 14 8.003 14 L 8.388 13.983 L 6.165 11.76 L 5.389 12.53 Z M 5.909 8.727 C 5.798 8.727 5.693 8.709 5.605 8.68 C 5.518 8.651 5.438 8.603 5.372 8.54 C 5.308 8.481 5.255 8.411 5.221 8.324 C 5.185 8.243 5.168 8.149 5.168 8.05 L 4.409 8.05 C 4.409 8.26 4.451 8.447 4.532 8.604 C 4.613 8.761 4.724 8.896 4.859 9.007 C 4.999 9.111 5.156 9.193 5.337 9.246 C 5.512 9.304 5.699 9.333 5.897 9.333 C 6.113 9.333 6.317 9.304 6.498 9.246 C 6.684 9.188 6.848 9.1 6.982 8.989 C 7.116 8.879 7.227 8.739 7.303 8.569 C 7.379 8.4 7.419 8.213 7.419 8.003 C 7.419 7.893 7.408 7.781 7.379 7.677 C 7.351 7.571 7.306 7.47 7.244 7.379 C 7.186 7.286 7.104 7.204 7.011 7.129 C 6.912 7.053 6.795 6.994 6.655 6.948 C 6.866 6.853 7.046 6.702 7.174 6.51 C 7.233 6.422 7.273 6.335 7.303 6.241 C 7.332 6.149 7.343 6.055 7.343 5.961 C 7.343 5.751 7.309 5.565 7.239 5.401 C 7.174 5.245 7.071 5.107 6.941 4.999 C 6.824 4.889 6.667 4.807 6.492 4.749 C 6.311 4.696 6.113 4.667 5.897 4.667 C 5.687 4.667 5.494 4.696 5.313 4.76 C 5.139 4.824 4.981 4.911 4.853 5.023 C 4.731 5.133 4.631 5.261 4.555 5.413 C 4.485 5.565 4.451 5.729 4.451 5.909 L 5.209 5.909 C 5.209 5.81 5.226 5.723 5.261 5.647 C 5.294 5.57 5.344 5.503 5.407 5.449 C 5.471 5.396 5.541 5.349 5.629 5.32 C 5.716 5.291 5.803 5.273 5.909 5.273 C 6.142 5.273 6.317 5.331 6.428 5.454 C 6.539 5.571 6.597 5.74 6.597 5.956 C 6.597 6.061 6.579 6.154 6.551 6.241 C 6.521 6.325 6.471 6.399 6.404 6.458 C 6.341 6.516 6.259 6.563 6.165 6.598 C 6.072 6.633 5.955 6.65 5.827 6.65 L 5.378 6.65 L 5.378 7.251 L 5.827 7.251 C 5.955 7.251 6.072 7.263 6.177 7.291 C 6.282 7.321 6.369 7.368 6.439 7.426 C 6.509 7.49 6.568 7.566 6.609 7.659 C 6.649 7.752 6.667 7.863 6.667 7.991 C 6.667 8.231 6.597 8.411 6.463 8.534 C 6.329 8.669 6.142 8.727 5.909 8.727 Z M 10.896 5.273 C 10.709 5.081 10.488 4.929 10.231 4.824 C 9.981 4.719 9.694 4.667 9.379 4.667 L 8.003 4.667 L 8.003 9.333 L 9.344 9.333 C 9.665 9.333 9.963 9.281 10.225 9.176 C 10.488 9.071 10.715 8.925 10.902 8.733 C 11.089 8.54 11.234 8.307 11.333 8.039 C 11.433 7.764 11.485 7.461 11.485 7.123 L 11.485 6.889 C 11.485 6.551 11.433 6.248 11.333 5.973 C 11.229 5.699 11.083 5.466 10.896 5.273 Z M 10.669 7.117 C 10.669 7.361 10.639 7.578 10.587 7.776 C 10.529 7.969 10.447 8.138 10.336 8.271 C 10.225 8.406 10.085 8.511 9.922 8.581 C 9.753 8.651 9.561 8.686 9.344 8.686 L 8.813 8.686 L 8.813 5.32 L 9.379 5.32 C 9.799 5.32 10.121 5.454 10.336 5.723 C 10.558 5.991 10.669 6.376 10.669 6.883 L 10.669 7.117 Z M 8.003 0 L 7.618 0.018 L 9.841 2.24 L 10.616 1.464 C 12.523 2.369 13.889 4.218 14.093 6.411 L 14.968 6.411 C 14.676 2.823 11.672 0 8.003 0 Z"  fill-rule="evenodd"/>
  </svg>
  <svg width="24" height="24" id="brand-bell" y="0" transform="matrix(0.6666666666666666, 0, 0, 0.6666666666666666, 0, -8)">
    <path d="M 8 16.5 C 8.789 16.5 9.435 15.854 9.435 15.064 L 6.564 15.064 C 6.564 15.857 7.206 16.5 8 16.5 Z M 12.307 12.192 L 12.307 8.603 C 12.307 6.398 11.13 4.553 9.077 4.065 L 9.077 3.577 C 9.077 2.981 8.595 2.5 8 2.5 C 7.404 2.5 6.923 2.981 6.923 3.577 L 6.923 4.065 C 4.862 4.553 3.692 6.391 3.692 8.603 L 3.692 12.192 L 2.256 13.628 L 2.256 14.346 L 13.743 14.346 L 13.743 13.628 L 12.307 12.192 Z"  fill-rule="evenodd"/>
  </svg>
  <svg width="24" height="24" id="brand-board" y="0" transform="matrix(0.6666666666666666, 0, 0, 0.6666666666666666, 2.842170943040401e-14, 32.00000000000001)">
    <path d="M 15 3 L 15 15.6 L 1 15.6 L 1 3 L 15 3 Z M 5.2 4.4 L 2.4 4.4 L 2.4 14.2 L 5.2 14.2 L 5.2 4.4 Z M 9.4 4.4 L 6.6 4.4 L 6.6 14.2 L 9.4 14.2 L 9.4 4.4 Z M 13.6 4.4 L 10.8 4.4 L 10.8 14.2 L 13.6 14.2 L 13.6 4.4 Z"  fill-rule="evenodd"/>
  </svg>
  <svg width="24" height="24" id="brand-buildings" y="0" transform="matrix(0.6666666666666666, 0, 0, 0.6666666666666666, 0, -23.999999999999993)">
    <path d="M 8 5.8 L 8 3 L 1 3 L 1 15.6 L 15 15.6 L 15 5.8 L 8 5.8 Z M 3.8 14.2 L 2.4 14.2 L 2.4 12.8 L 3.8 12.8 L 3.8 14.2 Z M 3.8 11.4 L 2.4 11.4 L 2.4 10 L 3.8 10 L 3.8 11.4 Z M 3.8 8.6 L 2.4 8.6 L 2.4 7.2 L 3.8 7.2 L 3.8 8.6 Z M 3.8 5.8 L 2.4 5.8 L 2.4 4.4 L 3.8 4.4 L 3.8 5.8 Z M 6.6 14.2 L 5.2 14.2 L 5.2 12.8 L 6.6 12.8 L 6.6 14.2 Z M 6.6 11.4 L 5.2 11.4 L 5.2 10 L 6.6 10 L 6.6 11.4 Z M 6.6 8.6 L 5.2 8.6 L 5.2 7.2 L 6.6 7.2 L 6.6 8.6 Z M 6.6 5.8 L 5.2 5.8 L 5.2 4.4 L 6.6 4.4 L 6.6 5.8 Z M 13.6 14.2 L 8 14.2 L 8 12.8 L 9.4 12.8 L 9.4 11.4 L 8 11.4 L 8 10 L 9.4 10 L 9.4 8.6 L 8 8.6 L 8 7.2 L 13.6 7.2 L 13.6 14.2 Z M 12.2 8.6 L 10.8 8.6 L 10.8 10 L 12.2 10 L 12.2 8.6 Z M 12.2 11.4 L 10.8 11.4 L 10.8 12.8 L 12.2 12.8 L 12.2 11.4 Z"  fill-rule="evenodd"/>
  </svg>
  <svg width="24" height="24" id="brand-calendar" y="0" transform="matrix(0.6666666666666666, 0, 0, 0.6666666666666666, 0, -32.000000000000014)">
    <path d="M 13.818 2.455 L 13.091 2.455 L 13.091 1 L 11.636 1 L 11.636 2.455 L 4.363 2.455 L 4.363 1 L 2.909 1 L 2.909 2.455 L 2.182 2.455 C 1.382 2.455 0.727 3.109 0.727 3.909 L 0.727 15.545 C 0.727 16.345 1.382 17 2.182 17 L 13.818 17 C 14.618 17 15.272 16.345 15.272 15.545 L 15.272 3.909 C 15.272 3.109 14.618 2.455 13.818 2.455 Z M 13.818 15.545 L 2.182 15.545 L 2.182 6.091 L 13.818 6.091 L 13.818 15.545 Z"  fill-rule="evenodd"/>
  </svg>
  <svg width="24" height="24" id="brand-camera" y="0" transform="matrix(0.6666666666666666, 0, 0, 0.6666666666666666, 0, -40.000000000000014)">
    <path d="M 9.8 3 L 10.898 4.2 L 12.8 4.2 C 13.46 4.2 14 4.74 14 5.4 L 14 12.6 C 14 13.26 13.46 13.8 12.8 13.8 L 3.2 13.8 C 2.54 13.8 2 13.26 2 12.6 L 2 5.4 C 2 4.74 2.54 4.2 3.2 4.2 L 5.102 4.2 L 6.2 3 L 9.8 3 Z M 8 6 C 6.344 6 5 7.344 5 9 C 5 10.656 6.344 12 8 12 C 9.656 12 11 10.656 11 9 C 11 7.344 9.656 6 8 6 Z M 8 7.08 C 9.478 7.08 10.402 8.68 9.663 9.96 C 9.32 10.554 8.686 10.92 8 10.92 C 6.522 10.92 5.599 9.32 6.337 8.04 C 6.68 7.446 7.314 7.08 8 7.08 Z"  fill-rule="evenodd"/>
  </svg>
  <svg width="24" height="24" id="brand-chart-bars-1" y="0" transform="matrix(0.6666666666666666, 0, 0, 0.6666666666666666, 0, -48.000000000000014)">
    <path d="M 2.105 8.563 L 2.842 8.563 C 3.453 8.563 3.948 9.053 3.948 9.656 L 3.948 12.573 C 3.944 13.18 3.449 13.67 2.842 13.666 L 2.105 13.666 C 1.498 13.67 1.003 13.18 1 12.573 L 1 9.656 C 1 9.052 1.494 8.563 2.105 8.563 Z M 5.789 6.375 L 6.526 6.375 C 7.136 6.375 7.631 6.865 7.631 7.469 L 7.631 12.573 C 7.627 13.18 7.134 13.669 6.526 13.666 L 5.789 13.666 C 5.182 13.67 4.687 13.18 4.684 12.573 L 4.684 7.469 C 4.684 6.864 5.178 6.375 5.789 6.375 Z M 9.473 3.459 L 10.209 3.459 C 10.82 3.459 11.315 3.949 11.315 4.552 L 11.315 12.573 C 11.312 13.18 10.817 13.669 10.211 13.666 L 9.474 13.666 C 8.867 13.67 8.373 13.18 8.369 12.573 L 8.369 4.552 C 8.369 3.948 8.864 3.459 9.474 3.459 Z M 13.158 2 L 13.895 2 C 14.506 2 15 2.49 15 3.094 L 15 12.573 C 14.996 13.18 14.502 13.67 13.895 13.666 L 13.158 13.666 C 12.551 13.67 12.056 13.18 12.052 12.573 L 12.052 3.094 C 12.052 2.489 12.547 2 13.158 2 Z M 2.105 9.291 C 1.903 9.291 1.738 9.454 1.737 9.656 L 1.737 12.573 C 1.737 12.774 1.902 12.938 2.105 12.938 L 2.842 12.938 C 3.046 12.938 3.21 12.774 3.21 12.573 L 3.21 9.656 C 3.209 9.454 3.045 9.291 2.842 9.291 L 2.105 9.291 Z M 5.79 7.104 C 5.588 7.103 5.422 7.267 5.421 7.469 L 5.421 12.573 C 5.421 12.774 5.586 12.938 5.79 12.938 L 6.526 12.938 C 6.729 12.938 6.895 12.774 6.895 12.573 L 6.895 7.469 C 6.894 7.267 6.729 7.103 6.526 7.104 L 5.789 7.104 Z M 9.473 4.188 C 9.271 4.187 9.106 4.349 9.105 4.552 L 9.105 12.573 C 9.105 12.774 9.27 12.938 9.473 12.938 L 10.21 12.938 C 10.414 12.938 10.579 12.774 10.579 12.573 L 10.579 4.552 C 10.578 4.349 10.412 4.187 10.21 4.188 L 9.473 4.188 Z M 13.158 2.729 C 12.955 2.728 12.791 2.892 12.79 3.094 L 12.79 12.573 C 12.79 12.774 12.954 12.938 13.158 12.938 L 13.895 12.938 C 14.099 12.938 14.263 12.774 14.263 12.573 L 14.263 3.094 C 14.262 2.892 14.097 2.728 13.895 2.729 L 13.158 2.729 Z"  fill-rule="evenodd"/>
  </svg>
  <svg width="24" height="24" id="brand-chart-bars-2" y="0" transform="matrix(0.6666666666666666, 0, 0, 0.6666666666666666, 0, -56.000000000000014)">
    <path d="M 1.28 9.032 L 4.16 9.032 L 4.16 18.44 L 1.28 18.44 L 1.28 9.032 Z M 6.656 5 L 9.344 5 L 9.344 18.44 L 6.656 18.44 L 6.656 5 Z M 12.032 12.68 L 14.72 12.68 L 14.72 18.44 L 12.032 18.44 L 12.032 12.68 Z"  fill-rule="evenodd"/>
  </svg>
  <svg width="24" height="24" id="brand-chart-line" y="0" transform="matrix(0.6666666666666666, 0, 0, 0.6666666666666666, 0, -64.00000000000003)">
    <path d="M 1 0 L 1 12.52 L 2.967 12.52 L 5.89 7.279 L 5.411 6.735 L 1.662 11 L 1 10.247 L 5.411 5.229 L 6.404 6.358 L 8.277 3 L 9.785 7.718 L 10.967 6.374 L 12.771 8.427 L 15.163 3 L 16 3.477 L 13.028 10.221 L 16 13.005 L 15.34 13.794 L 13.055 11.652 L 10.741 14 L 9.367 9.699 L 8.692 10.467 L 6.597 8.083 L 3.534 13.573 L 1 13.573 L 1 15 L 16 15 L 16 16 L 0 16 L 0 0 L 1 0 Z M 10.967 7.88 L 10.137 8.823 L 11.182 12.093 L 13.025 10.223 L 10.967 7.881 Z M 8.03 5.514 L 7.111 7.162 L 8.692 8.961 L 9.014 8.595 L 8.03 5.515 Z"  fill-rule="evenodd"/>
  </svg>
  <svg width="24" height="24" id="brand-check-border" y="0" transform="matrix(0.6666666666666666, 0, 0, 0.6666666666666666, 0, -72.00000000000003)">
    <path d="M 10.754 5.348 L 6.8 9.302 L 4.646 7.154 L 3.8 8 L 6.8 11 L 11.6 6.2 L 10.754 5.348 Z M 8 2 C 4.688 2 2 4.688 2 8 C 2 11.312 4.688 14 8 14 C 11.312 14 14 11.312 14 8 C 14 4.688 11.312 2 8 2 Z M 8 12.8 C 5.348 12.8 3.2 10.652 3.2 8 C 3.2 5.348 5.348 3.2 8 3.2 C 10.652 3.2 12.8 5.348 12.8 8 C 12.8 10.652 10.652 12.8 8 12.8 Z"  fill-rule="evenodd"/>
  </svg>
  <svg width="24" height="24" id="brand-check" y="0">
    <path d="M 5.434 13.468 L 2.097 10.131 L 0.96 11.259 L 5.434 15.734 L 15.04 6.128 L 13.912 5 Z"  fill-rule="evenodd"/>
  </svg>
  <svg width="24" height="24" id="brand-close" y="0">
    <path d="M 13.6 6.128 L 12.472 5 L 8 9.472 L 3.528 5 L 2.4 6.128 L 6.872 10.6 L 2.4 15.072 L 3.528 16.2 L 8 11.728 L 12.472 16.2 L 13.6 15.072 L 9.128 10.6 Z"  fill-rule="evenodd"/>
  </svg>
  <svg width="24" height="24" id="brand-compass" y="0">
    <path d="M 8 8.23 C 7.573 8.23 7.23 8.573 7.23 9 C 7.23 9.427 7.573 9.77 8 9.77 C 8.427 9.77 8.77 9.427 8.77 9 C 8.77 8.573 8.427 8.23 8 8.23 Z M 8 2 C 4.136 2 1 5.136 1 9 C 1 12.864 4.136 16 8 16 C 11.864 16 15 12.864 15 9 C 15 5.136 11.864 2 8 2 Z M 9.533 10.533 L 3.8 13.2 L 6.467 7.467 L 12.2 4.8 L 9.533 10.533 Z"  fill-rule="evenodd"/>
  </svg>
  <svg width="24" height="24" id="brand-contact" y="0">
    <path d="M 8 12 C 10.21 12 12 10.21 12 8 C 12 5.79 10.21 4 8 4 C 5.79 4 4 5.79 4 8 C 4 10.21 5.79 12 8 12 Z M 8 14 C 5.33 14 0 15.34 0 18 L 0 20 L 16 20 L 16 18 C 16 15.34 10.67 14 8 14 Z"  fill-rule="evenodd"/>
  </svg>
  <svg width="24" height="24" id="brand-copy" y="0">
    <path d="M 13.455 15.545 L 5.455 15.545 L 5.455 5.364 L 13.455 5.364 M 13.455 3.909 L 5.455 3.909 C 4.651 3.909 4 4.56 4 5.364 L 4 15.545 C 4 16.349 4.651 17 5.455 17 L 13.455 17 C 14.258 17 14.909 16.349 14.909 15.545 L 14.909 5.364 C 14.909 4.56 14.258 3.909 13.455 3.909 M 11.273 1 L 2.546 1 C 1.742 1 1.091 1.651 1.091 2.455 L 1.091 12.636 L 2.546 12.636 L 2.546 2.455 L 11.273 2.455 L 11.273 1 Z"  fill-rule="evenodd"/>
  </svg>
  <svg width="24" height="24" id="brand-drone-border" y="0">
    <path d="M 8 2 C 11.864 2 15 5.136 15 9 C 15 12.864 11.864 16 8 16 C 4.136 16 1 12.864 1 9 C 1 5.136 4.136 2 8 2 Z M 8 3.4 C 4.913 3.4 2.4 5.913 2.4 9 C 2.4 12.087 4.913 14.6 8 14.6 L 8.174 14.597 C 11.181 14.505 13.6 12.028 13.6 9 C 13.6 5.913 11.087 3.4 8 3.4 Z M 7.96 8.801 C 9.304 8.801 9.227 9.247 10.404 9.317 C 10.398 9.267 10.396 9.218 10.396 9.168 L 10.396 8.844 L 11.252 8.844 L 11.252 9.089 C 11.252 9.746 11.057 10.096 10.823 10.096 C 10.707 10.096 10.599 10.008 10.522 9.842 L 9.615 9.842 C 9.479 9.842 8.787 10.201 8.739 10.936 C 8.704 11.206 8.612 11.23 8.457 11.232 L 7.492 11.232 C 7.307 11.232 7.19 11.232 7.162 10.936 C 7.113 10.201 6.421 9.842 6.284 9.842 L 5.378 9.842 C 5.301 10.008 5.194 10.096 5.077 10.096 C 4.843 10.096 4.649 9.746 4.649 9.089 L 4.649 8.844 L 5.505 8.844 L 5.505 9.089 C 5.505 9.168 5.505 9.247 5.496 9.317 C 6.665 9.247 6.587 8.801 7.94 8.801 L 7.96 8.801 Z M 12.255 8.066 C 12.42 8.066 12.557 8.188 12.557 8.337 C 12.557 8.486 12.42 8.608 12.255 8.608 L 9.382 8.608 C 9.216 8.608 9.08 8.486 9.08 8.337 C 9.08 8.188 9.216 8.066 9.382 8.066 L 12.255 8.066 Z M 6.508 8.066 C 6.674 8.066 6.811 8.188 6.811 8.337 C 6.811 8.486 6.674 8.608 6.518 8.608 L 3.635 8.608 C 3.469 8.608 3.333 8.486 3.333 8.337 C 3.333 8.188 3.469 8.066 3.635 8.066 L 6.508 8.066 Z M 5.077 7.444 C 5.31 7.444 5.505 7.619 5.505 7.829 L 5.505 7.856 L 4.649 7.856 L 4.649 7.829 C 4.649 7.619 4.843 7.444 5.077 7.444 Z M 10.824 7.444 C 11.057 7.444 11.252 7.619 11.252 7.829 L 11.252 7.856 L 10.394 7.856 L 10.394 7.829 C 10.394 7.619 10.589 7.444 10.823 7.444 Z"  fill-rule="evenodd"/>
  </svg>
  <svg width="24" height="24" id="brand-edit" y="0">
    <path d="M 0 15.668 L 0 19.001 L 3.333 19.001 L 13.163 9.171 L 9.83 5.838 L 0 15.668 Z M 15.74 6.593 C 16.087 6.248 16.087 5.686 15.74 5.34 L 13.66 3.26 C 13.315 2.914 12.753 2.914 12.407 3.26 L 10.781 4.887 L 14.114 8.22 L 15.74 6.593 Z"  fill-rule="evenodd"/>
  </svg>
  <svg width="24" height="24" id="brand-expand" y="0">
    <path d="M 12.667 13.667 L 3.334 13.667 L 3.334 4.334 L 8 4.334 L 8 3 L 3.334 3 C 2.597 3 2 3.597 2 4.334 L 2 13.667 C 2 14.403 2.597 15 3.334 15 L 12.667 15 C 13.4 15 14 14.4 14 13.667 L 14 9 L 12.667 9 L 12.667 13.667 Z M 9.334 3 L 9.334 4.334 L 11.727 4.334 L 5.173 10.887 L 6.113 11.827 L 12.667 5.273 L 12.667 7.666 L 14 7.666 L 14 3 L 9.334 3 Z"  fill-rule="evenodd"/>
  </svg>
  <svg width="24" height="24" id="brand-filters" y="0">
    <path d="M 5.5 13.916 C 6.431 13.916 7.215 14.567 7.437 15.447 L 15 15.448 L 15 16.469 L 7.437 16.469 C 7.215 17.35 6.432 18 5.5 18 C 4.568 18 3.785 17.35 3.563 16.469 L 1 16.469 L 1 15.448 L 3.564 15.447 C 3.786 14.567 4.568 13.916 5.5 13.916 Z M 5.5 14.937 C 4.948 14.937 4.5 15.394 4.5 15.958 C 4.5 16.522 4.948 16.979 5.5 16.979 C 6.052 16.979 6.5 16.522 6.5 15.958 C 6.5 15.394 6.052 14.937 5.5 14.937 Z M 10.5 9.25 C 11.432 9.25 12.215 9.9 12.437 10.78 L 15 10.781 L 15 11.802 L 12.436 11.802 C 12.215 12.682 11.432 13.334 10.5 13.334 C 9.568 13.334 8.785 12.682 8.563 11.802 L 1 11.802 L 1 10.781 L 8.563 10.78 C 8.786 9.9 9.569 9.25 10.5 9.25 Z M 10.5 10.271 C 9.948 10.271 9.5 10.728 9.5 11.292 C 9.5 11.856 9.948 12.313 10.5 12.313 C 11.052 12.313 11.5 11.856 11.5 11.292 C 11.5 10.728 11.052 10.271 10.5 10.271 Z M 4.5 4 C 5.432 4 6.215 4.65 6.436 5.53 L 15 5.531 L 15 6.552 L 6.437 6.552 C 6.215 7.432 5.431 8.084 4.5 8.084 C 3.568 8.084 2.785 7.432 2.563 6.552 L 1 6.552 L 1 5.531 L 2.564 5.53 C 2.785 4.65 3.568 4 4.5 4 Z M 4.5 5.021 C 3.948 5.021 3.5 5.478 3.5 6.042 C 3.5 6.606 3.949 7.063 4.5 7.063 C 5.051 7.063 5.5 6.606 5.5 6.042 C 5.5 5.478 5.052 5.021 4.5 5.021 Z"  fill-rule="evenodd"/>
  </svg>
  <svg width="24" height="24" id="brand-gallery" y="0">
    <path d="M 1 9.222 L 7.222 9.222 L 7.222 3 L 1 3 M 2.556 4.556 L 5.666 4.556 L 5.666 7.666 L 2.556 7.666 M 8.778 17 L 15 17 L 15 10.778 L 8.778 10.778 M 10.334 12.334 L 13.444 12.334 L 13.444 15.444 L 10.334 15.444 M 1 17 L 7.222 17 L 7.222 10.778 L 1 10.778 M 2.556 12.334 L 5.666 12.334 L 5.666 15.444 L 2.556 15.444 M 8.778 3 L 8.778 9.222 L 15 9.222 L 15 3 M 13.444 7.666 L 10.334 7.666 L 10.334 4.556 L 13.444 4.556 L 13.444 7.666 Z"  fill-rule="evenodd"/>
  </svg>
  <svg width="24" height="24" id="brand-gear" y="0">
    <path d="M 8.002 11.715 C 6.064 11.715 4.852 9.616 5.821 7.937 C 6.27 7.158 7.103 6.678 8.002 6.678 C 9.942 6.678 11.153 8.776 10.184 10.456 C 9.734 11.235 8.902 11.715 8.002 11.715 M 13.349 9.894 C 13.378 9.664 13.399 9.434 13.399 9.196 C 13.399 8.959 13.378 8.721 13.349 8.477 L 14.867 7.304 C 15.004 7.196 15.04 7.001 14.954 6.843 L 13.515 4.353 C 13.428 4.195 13.234 4.13 13.076 4.195 L 11.284 4.915 C 10.909 4.634 10.521 4.389 10.067 4.209 L 9.801 2.302 C 9.772 2.127 9.62 1.999 9.441 2 L 6.563 2 C 6.383 2 6.232 2.13 6.203 2.302 L 5.937 4.209 C 5.483 4.389 5.095 4.634 4.721 4.915 L 2.929 4.195 C 2.77 4.13 2.576 4.195 2.49 4.353 L 1.05 6.843 C 0.957 7.001 1 7.196 1.137 7.304 L 2.655 8.477 C 2.626 8.721 2.605 8.959 2.605 9.196 C 2.605 9.434 2.626 9.664 2.655 9.894 L 1.137 11.089 C 1 11.197 0.957 11.391 1.05 11.55 L 2.49 14.04 C 2.576 14.198 2.77 14.255 2.929 14.198 L 4.721 13.471 C 5.095 13.759 5.483 14.004 5.937 14.183 L 6.203 16.09 C 6.232 16.263 6.383 16.393 6.563 16.393 L 9.441 16.393 C 9.621 16.393 9.772 16.263 9.801 16.09 L 10.067 14.183 C 10.521 13.996 10.909 13.759 11.284 13.471 L 13.076 14.198 C 13.234 14.255 13.428 14.198 13.515 14.04 L 14.954 11.55 C 15.04 11.391 15.004 11.197 14.867 11.089 L 13.349 9.894 Z"  fill-rule="evenodd"/>
  </svg>
  <svg width="24" height="24" id="brand-globe" y="0">
    <path d="M 11.052 10.4 C 11.108 9.938 11.15 9.476 11.15 9 C 11.15 8.524 11.108 8.062 11.052 7.6 L 13.418 7.6 C 13.53 8.048 13.6 8.517 13.6 9 C 13.6 9.483 13.53 9.952 13.418 10.4 M 9.813 14.292 C 10.233 13.515 10.555 12.675 10.779 11.8 L 12.844 11.8 C 12.166 12.968 11.09 13.853 9.813 14.292 M 9.638 10.4 L 6.362 10.4 C 6.292 9.938 6.25 9.476 6.25 9 C 6.25 8.524 6.292 8.055 6.362 7.6 L 9.638 7.6 C 9.701 8.055 9.75 8.524 9.75 9 C 9.75 9.476 9.701 9.938 9.638 10.4 M 8 14.572 C 7.419 13.732 6.95 12.801 6.663 11.8 L 9.337 11.8 C 9.05 12.801 8.581 13.732 8 14.572 M 5.2 6.2 L 3.156 6.2 C 3.827 5.029 4.902 4.143 6.18 3.708 C 5.76 4.485 5.445 5.325 5.2 6.2 M 3.156 11.8 L 5.2 11.8 C 5.445 12.675 5.76 13.515 6.18 14.292 C 4.905 13.852 3.831 12.967 3.156 11.8 M 2.582 10.4 C 2.47 9.952 2.4 9.483 2.4 9 C 2.4 8.517 2.47 8.048 2.582 7.6 L 4.948 7.6 C 4.892 8.062 4.85 8.524 4.85 9 C 4.85 9.476 4.892 9.938 4.948 10.4 M 8 3.421 C 8.581 4.261 9.05 5.199 9.337 6.2 L 6.663 6.2 C 6.95 5.199 7.419 4.261 8 3.421 M 12.844 6.2 L 10.779 6.2 C 10.56 5.333 10.236 4.496 9.813 3.708 C 11.101 4.149 12.172 5.038 12.844 6.2 M 8 2 C 4.129 2 1 5.15 1 9 C 1 12.866 4.134 16 8 16 C 11.866 16 15 12.866 15 9 C 15 5.134 11.866 2 8 2 Z"  fill-rule="evenodd"/>
  </svg>
  <svg width="24" height="24" id="brand-heart" y="0">
    <path d="M 11.15 3 C 13.306 3 15 4.694 15 6.85 C 15 9.437 12.725 11.556 9.253 14.705 L 9.015 14.921 L 8 15.845 L 6.985 14.928 C 3.38 11.652 1 9.496 1 6.85 C 1 4.694 2.694 3 4.85 3 C 6.068 3 7.237 3.567 8 4.463 C 8.763 3.567 9.932 3 11.15 3 Z M 4.85 4.4 C 3.45 4.4 2.4 5.45 2.4 6.85 C 2.4 7.881 2.97 8.904 3.971 10.06 C 4.89 11.12 6.17 12.291 7.704 13.68 L 7.93 13.885 L 8 13.955 L 8.07 13.885 C 11.402 10.868 13.6 8.873 13.6 6.85 C 13.6 5.45 12.55 4.4 11.15 4.4 C 10.072 4.4 9.022 5.093 8.658 6.052 L 7.349 6.052 C 6.978 5.093 5.928 4.4 4.85 4.4 Z"  fill-rule="evenodd"/>
  </svg>
  <svg width="24" height="24" id="brand-home" y="0">
    <path d="M 6.4 16.6 L 6.4 11.8 L 9.6 11.8 L 9.6 16.6 L 13.6 16.6 L 13.6 10.2 L 16 10.2 L 8 3 L 0 10.2 L 2.4 10.2 L 2.4 16.6 Z"  fill-rule="evenodd"/>
  </svg>
  <svg width="24" height="24" id="brand-info-border" y="0">
    <path d="M 7.2 6 L 8.8 6 L 8.8 7.6 L 7.2 7.6 L 7.2 6 Z M 7.2 9.2 L 8.8 9.2 L 8.8 14 L 7.2 14 L 7.2 9.2 Z M 8 2 C 3.584 2 0 5.584 0 10 C 0 14.416 3.584 18 8 18 C 12.416 18 16 14.416 16 10 C 16 5.584 12.416 2 8 2 Z M 8 16.4 C 4.472 16.4 1.6 13.528 1.6 10 C 1.6 6.472 4.472 3.6 8 3.6 C 11.528 3.6 14.4 6.472 14.4 10 C 14.4 13.528 11.528 16.4 8 16.4 Z"  fill-rule="evenodd"/>
  </svg>
  <svg width="24" height="24" id="brand-layout" y="0">
    <path d="M 6.222 4.778 L 6.222 9.222 L 5.333 9.222 L 5.333 4.778 L 1.778 4.778 L 1.778 11.889 L 5.333 11.889 L 5.333 11 L 6.222 11 L 6.222 15.444 L 5.333 15.444 L 5.333 12.778 L 1.778 12.778 L 1.778 17.222 L 8 17.222 L 8 15.444 L 8.889 15.444 L 8.889 17.222 L 14.222 17.222 L 14.222 15.444 L 16 15.444 L 16 19 L 0 19 L 0 3 L 16 3 L 16 13.667 L 14.222 13.667 L 14.222 9.222 L 8.889 9.222 L 8.889 13.667 L 8 13.667 L 8 8.333 L 14.222 8.333 L 14.222 4.778 Z"  fill-rule="evenodd"/>
  </svg>
  <svg width="24" height="24" id="brand-lightning" y="0">
    <path d="M 4 2 L 4 10.8 L 6.4 10.8 L 6.4 18 L 12 8.4 L 8.8 8.4 L 12 2 Z"  fill-rule="evenodd"/>
  </svg>
  <svg width="24" height="24" id="brand-list" y="0">
    <path d="M 16 13.971 L 16 14.905 L 3.432 14.905 L 3.432 13.971 L 16 13.971 Z M 2.417 13.971 L 2.417 14.905 L 0 14.905 L 0 13.971 L 2.417 13.971 Z M 16 10.98 L 16 11.914 L 3.432 11.914 L 3.432 10.981 L 16 10.981 Z M 2.417 10.98 L 2.417 11.914 L 0 11.914 L 0 10.981 L 2.417 10.981 Z M 16 7.99 L 16 8.925 L 3.432 8.925 L 3.432 7.99 L 16 7.99 Z M 2.417 7.99 L 2.417 8.925 L 0 8.925 L 0 7.99 L 2.417 7.99 Z M 16 5 L 16 5.934 L 3.432 5.934 L 3.432 5 L 16 5 Z M 2.417 5 L 2.417 5.934 L 0 5.934 L 0 5 L 2.417 5 Z"  fill-rule="evenodd"/>
  </svg>
  <svg width="24" height="24" id="brand-lock" y="0">
    <path d="M 12.572 6.333 L 11.81 6.333 L 11.81 4.81 C 11.81 2.707 10.103 1 8 1 C 5.897 1 4.191 2.707 4.191 4.81 L 4.191 6.333 L 3.429 6.333 C 2.591 6.333 1.905 7.019 1.905 7.857 L 1.905 15.476 C 1.905 16.314 2.591 17 3.429 17 L 12.572 17 C 13.41 17 14.095 16.314 14.095 15.476 L 14.095 7.857 C 14.095 7.019 13.41 6.333 12.572 6.333 Z M 8 13.19 C 7.162 13.19 6.476 12.505 6.476 11.667 C 6.476 10.829 7.162 10.143 8 10.143 C 8.838 10.143 9.524 10.829 9.524 11.667 C 9.524 12.505 8.838 13.19 8 13.19 Z M 10.362 6.333 L 5.638 6.333 L 5.638 4.81 C 5.638 3.507 6.697 2.448 8 2.448 C 9.303 2.448 10.362 3.507 10.362 4.81 L 10.362 6.333 Z"  fill-rule="evenodd"/>
  </svg>
  <svg width="24" height="24" id="brand-mail" y="0">
    <path d="M 14.4 4 C 15.28 4 16 4.72 16 5.6 L 16 15.2 C 16 16.08 15.28 16.8 14.4 16.8 L 1.6 16.8 C 0.72 16.8 0 16.08 0 15.2 L 0.008 5.6 C 0.008 4.72 0.72 4 1.6 4 Z M 14.4 7.2 L 8 11.2 L 1.6 7.2 L 1.6 15.2 L 14.4 15.2 L 14.4 7.2 Z M 14.4 5.6 L 1.6 5.6 L 8 9.6 L 14.4 5.6 Z"  fill-rule="evenodd"/>
  </svg>
  <svg width="24" height="24" id="brand-map" y="0">
    <path d="M 14.612 3 L 14.486 3.024 L 10.334 4.634 L 5.666 3 L 1.28 4.478 C 1.116 4.532 1 4.672 1 4.852 L 1 16.612 C 1 16.829 1.172 17 1.389 17 L 1.514 16.976 L 5.666 15.366 L 10.334 17 L 14.72 15.522 C 14.884 15.468 15 15.328 15 15.149 L 15 3.389 C 15 3.172 14.829 3 14.612 3 Z M 6.444 4.922 L 9.556 6.01 L 9.556 15.078 L 6.444 13.99 L 6.444 4.922 Z M 2.556 5.692 L 4.889 4.906 L 4.889 14.006 L 2.556 14.908 L 2.556 5.692 Z M 13.444 14.308 L 11.112 15.094 L 11.112 6.002 L 13.444 5.1 L 13.444 14.308 Z"  fill-rule="evenodd"/>
  </svg>
  <svg width="24" height="24" id="brand-menu" y="0">
    <path d="M 1 15.333 L 15 15.333 L 15 13.778 L 1 13.778 L 1 15.333 Z M 1 11.444 L 15 11.444 L 15 9.889 L 1 9.889 L 1 11.444 Z M 1 6 L 1 7.556 L 15 7.556 L 15 6 L 1 6 Z"  fill-rule="evenodd"/>
  </svg>
  <svg width="24" height="24" id="brand-minus-border" y="0">
    <path d="M 8 2 C 11.864 2 15 5.136 15 9 C 15 12.864 11.864 16 8 16 C 4.136 16 1 12.864 1 9 C 1 5.136 4.136 2 8 2 Z M 8 3.4 C 4.913 3.4 2.4 5.913 2.4 9 C 2.4 12.087 4.913 14.6 8 14.6 C 11.087 14.6 13.6 12.087 13.6 9 C 13.6 5.913 11.087 3.4 8 3.4 Z M 11.5 8.3 L 11.5 9.7 L 4.5 9.7 L 4.5 8.3 L 11.5 8.3 Z"  fill-rule="evenodd"/>
  </svg>
  <svg width="24" height="24" id="brand-minus" y="0">
    <path d="M 12 12.142 L 4 12.142 L 4 11 L 12 11 Z"  fill-rule="evenodd"/>
  </svg>
  <svg width="24" height="24" id="brand--pdf" y="0">
    <path d="M 14.959 0 C 15.533 0 16 0.467 16 1.041 L 16 14.959 C 16 15.533 15.533 16 14.959 16 L 1.041 16 C 0.467 16 0 15.533 0 14.959 L 0 1.041 C 0 0.467 0.467 0 1.041 0 L 14.959 0 Z M 4.429 6 L 2.667 6 L 2.667 10 L 3.507 10 L 3.507 8.562 L 4.367 8.562 C 4.815 8.562 5.16 8.464 5.401 8.269 C 5.643 8.073 5.764 7.739 5.764 7.267 C 5.764 6.835 5.643 6.515 5.401 6.309 C 5.16 6.103 4.836 6 4.429 6 Z M 8.144 6 L 6.401 6 L 6.401 10 L 8.144 10 C 8.755 10 9.208 9.751 9.501 9.253 C 9.717 8.885 9.825 8.434 9.825 7.902 C 9.825 7.693 9.799 7.472 9.748 7.24 C 9.696 7.007 9.598 6.788 9.459 6.594 C 9.291 6.354 9.049 6.176 8.77 6.087 C 8.567 6.028 8.356 5.998 8.144 6 Z M 13.333 6.005 L 10.464 6.005 L 10.464 10 L 11.304 10 L 11.304 8.323 L 13.081 8.323 L 13.081 7.628 L 11.304 7.628 L 11.304 6.708 L 13.333 6.708 L 13.333 6.005 Z M 8.001 6.695 C 8.386 6.695 8.643 6.804 8.771 7.021 C 8.901 7.24 8.965 7.552 8.965 7.959 C 8.965 8.254 8.922 8.509 8.836 8.722 C 8.679 9.111 8.401 9.305 8.001 9.305 L 7.221 9.305 L 7.221 6.695 Z M 4.295 6.695 C 4.495 6.695 4.649 6.739 4.76 6.828 C 4.871 6.916 4.927 7.065 4.927 7.273 C 4.927 7.481 4.871 7.633 4.76 7.729 C 4.649 7.825 4.495 7.873 4.295 7.873 L 3.507 7.873 L 3.507 6.695 Z"  fill-rule="evenodd"/>
  </svg>
  <svg width="24" height="24" id="brand-pause-border" y="0">
    <path d="M 8 2 C 11.864 2 15 5.136 15 9 C 15 12.864 11.864 16 8 16 C 4.136 16 1 12.864 1 9 C 1 5.136 4.136 2 8 2 Z M 8 3.4 C 4.913 3.4 2.4 5.913 2.4 9 C 2.4 12.087 4.913 14.6 8 14.6 C 11.087 14.6 13.6 12.087 13.6 9 C 13.6 5.913 11.087 3.4 8 3.4 Z M 7.3 6.2 L 7.3 11.8 L 5.9 11.8 L 5.9 6.2 L 7.3 6.2 Z M 10.1 6.2 L 10.1 11.8 L 8.7 11.8 L 8.7 6.2 L 10.1 6.2 Z"  fill-rule="evenodd"/>
  </svg>
  <svg width="24" height="24" id="brand-phone" y="0">
    <path d="M 4.413 8.193 C 5.373 10.08 6.92 11.62 8.807 12.587 L 10.273 11.12 C 10.453 10.94 10.72 10.88 10.953 10.96 C 11.7 11.207 12.507 11.34 13.333 11.34 C 13.7 11.34 14 11.64 14 12.007 L 14 14.333 C 14 14.7 13.7 15 13.333 15 C 7.073 15 2 9.927 2 3.667 C 2 3.3 2.3 3 2.667 3 L 5 3 C 5.367 3 5.667 3.3 5.667 3.667 C 5.667 4.5 5.8 5.3 6.047 6.047 C 6.12 6.28 6.067 6.54 5.88 6.727 L 4.413 8.193 Z"  fill-rule="evenodd"/>
  </svg>
  <svg width="24" height="24" id="brand-pin" y="0">
    <path d="M 4.045 7.159 C 3.959 6.993 4.002 6.744 4.131 6.578 L 7.742 3.093 C 7.875 2.969 8.082 2.969 8.215 3.093 L 11.868 6.578 C 11.998 6.703 12.041 6.951 11.955 7.159 L 8.144 14.875 C 8.058 15.042 7.929 15.042 7.843 14.875 L 4.045 7.16 Z"  fill-rule="evenodd"/>
  </svg>
  <svg width="24" height="24" id="brand-plus-border" y="0">
    <path d="M 8.7 5.5 L 7.3 5.5 L 7.3 8.3 L 4.5 8.3 L 4.5 9.7 L 7.3 9.7 L 7.3 12.5 L 8.7 12.5 L 8.7 9.7 L 11.5 9.7 L 11.5 8.3 L 8.7 8.3 L 8.7 5.5 Z M 8 2 C 4.136 2 1 5.136 1 9 C 1 12.864 4.136 16 8 16 C 11.864 16 15 12.864 15 9 C 15 5.136 11.864 2 8 2 Z M 8 14.6 C 4.913 14.6 2.4 12.087 2.4 9 C 2.4 5.913 4.913 3.4 8 3.4 C 11.087 3.4 13.6 5.913 13.6 9 C 13.6 12.087 11.087 14.6 8 14.6 Z"  fill-rule="evenodd"/>
  </svg>
  <svg width="24" height="24" id="brand-plus" y="0">
    <path d="M 12 9.571 L 8.571 9.571 L 8.571 13 L 7.429 13 L 7.429 9.571 L 4 9.571 L 4 8.429 L 7.429 8.429 L 7.429 5 L 8.571 5 L 8.571 8.429 L 12 8.429 Z"  fill-rule="evenodd"/>
  </svg>
  <svg width="24" height="24" id="brand-print" y="0">
    <path d="M 12.9 6.5 L 3.1 6.5 C 1.938 6.5 1 7.438 1 8.6 L 1 12.8 L 3.8 12.8 L 3.8 15.6 L 12.2 15.6 L 12.2 12.8 L 15 12.8 L 15 8.6 C 15 7.438 14.062 6.5 12.9 6.5 Z M 10.8 14.2 L 5.2 14.2 L 5.2 10.7 L 10.8 10.7 L 10.8 14.2 Z M 12.9 9.3 C 12.515 9.3 12.2 8.985 12.2 8.6 C 12.2 8.215 12.515 7.9 12.9 7.9 C 13.285 7.9 13.6 8.215 13.6 8.6 C 13.6 8.985 13.285 9.3 12.9 9.3 Z M 12.2 3 L 3.8 3 L 3.8 5.8 L 12.2 5.8 L 12.2 3 Z"  fill-rule="evenodd"/>
  </svg>
  <svg width="24" height="24" id="brand-qrc" y="0">
    <path d="M 2 8.333 L 3.333 8.333 L 3.333 9.667 L 2 9.667 L 2 8.333 Z M 7.333 4.333 L 8.667 4.333 L 8.667 7 L 7.333 7 L 7.333 4.333 Z M 6 8.333 L 8.667 8.333 L 8.667 11 L 7.333 11 L 7.333 9.667 L 6 9.667 L 6 8.333 Z M 10 8.333 L 11.333 8.333 L 11.333 9.667 L 12.667 9.667 L 12.667 8.333 L 14 8.333 L 14 9.667 L 12.667 9.667 L 12.667 11 L 14 11 L 14 13.667 L 12.667 13.667 L 12.667 15 L 11.333 15 L 11.333 13.667 L 8.667 13.667 L 8.667 15 L 7.333 15 L 7.333 12.333 L 10 12.333 L 10 11 L 11.333 11 L 11.333 9.667 L 10 9.667 L 10 8.333 Z M 12.667 13.667 L 12.667 11 L 11.333 11 L 11.333 13.667 L 12.667 13.667 Z M 10 3 L 14 3 L 14 7 L 10 7 L 10 3 Z M 11.333 4.333 L 11.333 5.667 L 12.667 5.667 L 12.667 4.333 L 11.333 4.333 Z M 2 3 L 6 3 L 6 7 L 2 7 L 2 3 Z M 3.333 4.333 L 3.333 5.667 L 4.667 5.667 L 4.667 4.333 L 3.333 4.333 Z M 2 11 L 6 11 L 6 15 L 2 15 L 2 11 Z M 3.333 12.333 L 3.333 13.667 L 4.667 13.667 L 4.667 12.333 L 3.333 12.333 Z"  fill-rule="evenodd"/>
  </svg>
  <svg width="24" height="24" id="brand-question-border" y="0">
    <path d="M 7.3 13.2 L 8.7 13.2 L 8.7 11.8 L 7.3 11.8 L 7.3 13.2 Z M 8 2 C 4.136 2 1 5.136 1 9 C 1 12.864 4.136 16 8 16 C 11.864 16 15 12.864 15 9 C 15 5.136 11.864 2 8 2 Z M 8 14.6 C 4.913 14.6 2.4 12.087 2.4 9 C 2.4 5.913 4.913 3.4 8 3.4 C 11.087 3.4 13.6 5.913 13.6 9 C 13.6 12.087 11.087 14.6 8 14.6 Z M 8 4.8 C 6.453 4.8 5.2 6.053 5.2 7.6 L 6.6 7.6 C 6.6 6.83 7.23 6.2 8 6.2 C 8.77 6.2 9.4 6.83 9.4 7.6 C 9.4 9 7.3 8.825 7.3 11.1 L 8.7 11.1 C 8.7 9.525 10.8 9.35 10.8 7.6 C 10.8 6.053 9.547 4.8 8 4.8 Z"  fill-rule="evenodd"/>
  </svg>
  <svg width="24" height="24" id="brand-search" y="0">
    <path d="M 10.576 10.547 L 10.034 10.547 L 9.842 10.362 C 10.538 9.555 10.92 8.525 10.919 7.46 C 10.919 4.027 7.203 1.881 4.23 3.597 C 1.257 5.314 1.257 9.605 4.23 11.322 C 4.908 11.713 5.677 11.919 6.46 11.919 C 7.564 11.919 8.58 11.515 9.362 10.842 L 9.547 11.034 L 9.547 11.576 L 12.978 15 L 14 13.978 L 10.576 10.547 Z M 6.46 10.547 C 4.751 10.547 3.372 9.168 3.372 7.46 C 3.372 5.751 4.751 4.372 6.46 4.372 C 8.168 4.372 9.547 5.751 9.547 7.46 C 9.547 9.168 8.168 10.547 6.46 10.547 Z"  fill-rule="evenodd"/>
  </svg>
  <svg width="24" height="24" id="brand-source" y="0">
    <path d="M 8 1 L 5.272 3.727 L 7.318 3.727 L 7.318 9.864 L 8.681 9.864 L 8.681 3.727 L 10.727 3.727 L 8 1 Z M 12.09 16 L 3.909 16 C 3.156 16 2.545 15.389 2.545 14.636 L 2.545 6.455 C 2.545 5.701 3.156 5.091 3.909 5.091 L 5.954 5.091 L 5.954 6.455 L 3.909 6.455 L 3.909 14.636 L 12.09 14.636 L 12.09 6.455 L 10.045 6.455 L 10.045 5.091 L 12.09 5.091 C 12.844 5.091 13.454 5.701 13.454 6.455 L 13.454 14.636 C 13.454 15.389 12.844 16 12.09 16 Z"  fill-rule="evenodd"/>
  </svg>
  <svg width="24" height="24" id="brand-star-border" y="0">
    <path d="M 8 3 L 9.967 7.634 L 15 8.068 L 11.185 11.379 L 12.326 16.3 L 8 13.689 L 3.674 16.3 L 4.822 11.379 L 1 8.068 L 6.033 7.641 L 8 3 Z M 9.487 8.295 L 8 4.792 L 6.512 8.302 L 2.711 8.625 L 5.6 11.126 L 4.732 14.843 L 8 12.871 L 11.27 14.845 L 10.408 11.126 L 13.291 8.623 L 9.487 8.295 Z"  fill-rule="evenodd"/>
  </svg>
  <svg width="24" height="24" id="brand-star" y="0">
    <path d="M 8 3 L 9.967 7.634 L 15 8.068 L 11.185 11.379 L 12.326 16.3 L 8 13.689 L 3.674 16.3 L 4.822 11.379 L 1 8.068 L 6.033 7.641 Z"  fill-rule="evenodd"/>
  </svg>
  <svg width="24" height="24" id="brand-table" y="0">
    <path d="M 4 12 L 4 4 L 12 4 L 12 12 L 4 12 Z M 6.5 10 L 4.5 10 L 4.5 11.5 L 6.5 11.5 L 6.5 10 Z M 9 10 L 7 10 L 7 11.5 L 9 11.5 L 9 10 Z M 11.5 10 L 9.5 10 L 9.5 11.5 L 11.5 11.5 L 11.5 10 Z M 11.5 8 L 9.5 8 L 9.5 9.5 L 11.5 9.5 L 11.5 8 Z M 9 8 L 7 8 L 7 9.5 L 9 9.5 L 9 8 Z M 6.5 8 L 4.5 8 L 4.5 9.5 L 6.5 9.5 L 6.5 8 Z M 11.5 6 L 9.5 6 L 9.5 7.5 L 11.5 7.5 L 11.5 6 Z M 9 6 L 7 6 L 7 7.5 L 9 7.5 L 9 6 Z M 6.5 6 L 4.5 6 L 4.5 7.5 L 6.5 7.5 L 6.5 6 Z"  fill-rule="evenodd"/>
  </svg>
</svg>
